# Blender v2.92.0 OBJ File: 'prosperity.blend'
# www.blender.org
mtllib prosperity.mtl
o Cube
v 0.500000 0.100000 -0.500000
v 0.500000 0.000000 -0.500000
v 0.500000 0.100000 0.500000
v 0.500000 0.000000 0.500000
v -0.500000 0.100000 -0.500000
v -0.500000 0.000000 -0.500000
v -0.500000 0.100000 0.500000
v -0.500000 0.000000 0.500000
vt 0.000000 0.000000
vt 1.000000 0.000000
vt 1.000000 1.000000
vt 0.000000 1.000000
vt 0.114063 0.680469
vt 0.214062 0.680469
vt 0.214062 0.780469
vt 0.114063 0.780469
vt 0.114063 0.680469
vt 0.214062 0.680469
vt 0.214062 0.780469
vt 0.114063 0.780469
vt 0.114063 0.680469
vt 0.214062 0.680469
vt 0.214062 0.780469
vt 0.114063 0.680469
vt 0.214062 0.680469
vt 0.214062 0.780469
vt 0.114063 0.780469
vt 0.214062 0.680469
vt 0.214062 0.780469
vt 0.114063 0.780469
vn 0.0000 1.0000 0.0000
vn 0.0000 0.0000 1.0000
vn -1.0000 0.0000 0.0000
vn 0.0000 -1.0000 0.0000
vn 1.0000 0.0000 0.0000
vn 0.0000 0.0000 -1.0000
usemtl Material
s off
f 1/1/1 5/2/1 7/3/1 3/4/1
f 4/5/2 3/6/2 7/7/2 8/8/2
f 8/9/3 7/10/3 5/11/3 6/12/3
f 6/13/4 2/14/4 4/15/4 8/8/4
f 2/16/5 1/17/5 3/18/5 4/19/5
f 6/13/6 5/20/6 1/21/6 2/22/6
