# Blender v2.92.0 OBJ File: 'mech_pod.blend'
# www.blender.org
mtllib pod2.mtl
o pod03_Cube.002
v -0.500000 0.000000 0.900000
v -0.500000 1.000000 0.900000
v -0.500000 0.000000 -0.800000
v -0.500000 1.000000 -0.800000
v 0.500000 0.000000 0.900000
v 0.500000 1.000000 0.900000
v 0.500000 0.000000 -0.800000
v 0.500000 1.000000 -0.800000
v -0.400000 0.900000 -1.000000
v -0.400000 0.100000 -1.000000
v 0.400000 0.100000 -1.000000
v 0.400000 0.900000 -1.000000
v -0.400000 0.100000 1.000000
v -0.400000 0.900000 1.000000
v 0.400000 0.900000 1.000000
v 0.400000 0.100000 1.000000
v -0.400000 0.100000 0.500000
v -0.400000 0.900000 0.500000
v 0.400000 0.900000 0.500000
v 0.400000 0.100000 0.500000
v 0.200000 0.739598 1.000000
v 0.397990 0.700000 0.500000
v -0.200000 0.497990 0.500000
v 0.200000 0.102010 0.500000
v 0.239598 0.700000 1.000000
v 0.397990 0.300000 0.500000
v 0.002010 0.300000 0.500000
v -0.397990 0.300000 0.500000
v 0.200000 0.497990 0.500000
v -0.200000 0.897990 0.500000
v -0.397990 0.700000 0.500000
v -0.002010 0.700000 0.500000
v -0.200000 0.502010 0.500000
v 0.200000 0.502010 0.500000
v 0.200000 0.897990 0.500000
v 0.002010 0.700000 0.500000
v -0.200000 0.102010 0.500000
v -0.002010 0.300000 0.500000
v 0.239598 0.300000 1.000000
v 0.200000 0.260402 1.000000
v 0.160402 0.300000 1.000000
v 0.200000 0.660402 1.000000
v -0.160402 0.300000 1.000000
v -0.200000 0.339598 1.000000
v -0.239598 0.300000 1.000000
v -0.200000 0.260402 1.000000
v 0.200000 0.339598 1.000000
v -0.239598 0.700000 1.000000
v -0.200000 0.739598 1.000000
v -0.160402 0.700000 1.000000
v -0.200000 0.660402 1.000000
v 0.160402 0.700000 1.000000
vt 0.480469 0.250000
vt 0.480469 0.500000
vt 0.054688 0.500000
vt 0.054688 0.250000
vt 0.054688 0.746094
vt 0.054688 0.996094
vt 0.000000 0.972656
vt 0.000000 0.773438
vt 0.480469 0.746094
vt 0.480469 0.996094
vt 0.480469 0.000000
vt 0.515625 0.023438
vt 0.515625 0.222656
vt 0.054688 0.000000
vt 0.742188 0.464844
vt 0.742188 0.664062
vt 0.542969 0.664062
vt 0.542969 0.464844
vt 0.000000 0.222656
vt 0.000000 0.023438
vt 0.000000 0.722656
vt 0.000000 0.523438
vt 0.000000 0.472656
vt 0.000000 0.273438
vt 0.863281 0.449219
vt 0.664062 0.449219
vt 0.664062 0.324219
vt 0.863281 0.324219
vt 0.515625 0.523438
vt 0.515625 0.722656
vt 0.515625 0.773438
vt 0.515625 0.972656
vt 0.515625 0.273438
vt 0.515625 0.472656
vt 0.664062 0.125000
vt 0.863281 0.125000
vt 0.988281 0.125000
vt 0.988281 0.324219
vt 0.664062 0.000000
vt 0.863281 0.000000
vt 0.542969 0.324219
vt 0.542969 0.125000
vt 0.890625 0.484375
vt 0.902344 0.484375
vt 0.906250 0.496094
vt 0.890625 0.500000
vt 0.890625 0.484375
vt 0.902344 0.484375
vt 0.906250 0.496094
vt 0.890625 0.500000
vt 0.890625 0.484375
vt 0.902344 0.484375
vt 0.906250 0.496094
vt 0.890625 0.500000
vt 0.890625 0.484375
vt 0.902344 0.484375
vt 0.906250 0.496094
vt 0.890625 0.500000
vt 0.765625 0.535156
vt 0.761719 0.464844
vt 0.855469 0.636719
vt 0.796875 0.597656
vt 0.898438 0.511719
vt 0.910156 0.519531
vt 0.921875 0.652344
vt 0.855469 0.636719
vt 0.910156 0.519531
vt 0.921875 0.523438
vt 0.921875 0.652344
vt 0.855469 0.636719
vt 0.910156 0.519531
vt 0.921875 0.523438
vt 0.765625 0.535156
vt 0.761719 0.464844
vt 0.796875 0.597656
vt 0.898438 0.511719
vt 0.765625 0.535156
vt 0.761719 0.464844
vt 0.921875 0.652344
vt 0.921875 0.523438
vt 0.921875 0.652344
vt 0.855469 0.636719
vt 0.910156 0.519531
vt 0.921875 0.523438
vt 0.796875 0.597656
vt 0.898438 0.511719
vt 0.796875 0.597656
vt 0.765625 0.535156
vt 0.898438 0.511719
vt 0.761719 0.464844
vn -1.0000 0.0000 0.0000
vn 0.8944 0.0000 -0.4472
vn 1.0000 0.0000 0.0000
vn 0.0000 -0.7071 0.7071
vn 0.0000 -1.0000 0.0000
vn 0.0000 1.0000 0.0000
vn 0.0000 0.0000 -1.0000
vn 0.0000 -0.8944 -0.4472
vn 0.0000 0.8944 -0.4472
vn -0.8944 0.0000 -0.4472
vn 0.0000 0.7071 0.7071
vn 0.7071 0.0000 0.7071
vn -0.7071 0.0000 0.7071
vn 0.0000 0.0000 1.0000
vn -0.6900 -0.6900 0.2186
vn 0.6900 0.6900 0.2186
vn 0.6900 -0.6900 0.2186
vn -0.6900 0.6900 0.2186
usemtl mat_pod3
s off
f 1/1/1 2/2/1 4/3/1 3/4/1
f 8/5/2 7/6/2 11/7/2 12/8/2
f 7/6/3 8/5/3 6/9/3 5/10/3
f 1/1/4 5/11/4 16/12/4 13/13/4
f 3/4/5 7/14/5 5/11/5 1/1/5
f 8/5/6 4/3/6 2/2/6 6/9/6
f 10/15/7 9/16/7 12/17/7 11/18/7
f 7/14/8 3/4/8 10/19/8 11/20/8
f 4/3/9 8/5/9 12/21/9 9/22/9
f 3/4/10 4/3/10 9/23/10 10/24/10
f 16/25/1 15/26/1 19/27/1 20/28/1
f 6/9/11 2/2/11 14/29/11 15/30/11
f 5/10/12 6/9/12 15/31/12 16/32/12
f 2/2/13 1/1/13 13/33/13 14/34/13
f 20/28/14 19/27/14 18/35/14 17/36/14
f 13/37/6 16/38/6 20/28/6 17/36/6
f 14/39/3 13/40/3 17/36/3 18/35/3
f 15/41/5 14/42/5 18/35/5 19/27/5
f 42/43/14 25/44/14 21/45/14 52/46/14
f 40/47/14 39/48/14 47/49/14 41/50/14
f 46/51/14 43/52/14 44/53/14 45/54/14
f 51/55/14 50/56/14 49/57/14 48/58/14
f 28/59/15 37/60/15 46/51/15 45/54/15
f 22/61/16 35/62/16 21/63/16 25/64/16
f 33/65/17 32/66/17 50/67/17 51/68/17
f 24/69/17 26/70/17 39/71/17 40/72/17
f 36/73/15 34/74/15 42/43/15 52/46/15
f 26/70/16 29/75/16 47/76/16 39/71/16
f 27/77/15 24/78/15 40/47/15 41/50/15
f 35/62/18 36/73/18 52/46/18 21/63/18
f 29/75/18 27/77/18 41/50/18 47/76/18
f 34/79/17 22/61/17 25/64/17 42/80/17
f 37/81/17 38/82/17 43/83/17 46/84/17
f 23/85/18 28/59/18 45/54/18 44/86/18
f 30/87/18 31/88/18 48/58/18 49/89/18
f 38/82/16 23/85/16 44/86/16 43/83/16
f 32/66/16 30/87/16 49/89/16 50/67/16
f 31/88/15 33/90/15 51/55/15 48/58/15
